<?xml version="1.0" encoding="UTF-8"?>
<svg width="800" height="600" viewBox="0 0 800 600" xmlns="http://www.w3.org/2000/svg">
    <!-- Dashboard Background -->
    <rect x="50" y="50" width="700" height="500" rx="10" fill="#f5f6fa"/>
    
    <!-- Header Section -->
    <rect x="70" y="70" width="660" height="60" rx="5" fill="#fff"/>
    <circle cx="100" cy="100" r="15" fill="#4834d4"/>
    <rect x="130" y="90" width="120" height="20" rx="3" fill="#2d3436"/>
    
    <!-- Sidebar -->
    <rect x="70" y="150" width="200" height="380" rx="5" fill="#fff"/>
    <rect x="90" y="180" width="160" height="30" rx="3" fill="#dfe6e9"/>
    <rect x="90" y="230" width="160" height="30" rx="3" fill="#dfe6e9"/>
    <rect x="90" y="280" width="160" height="30" rx="3" fill="#dfe6e9"/>
    
    <!-- Main Content Area -->
    <rect x="290" y="150" width="440" height="180" rx="5" fill="#fff"/>
    <path d="M310 200 L380 280 L450 220 L520 300" stroke="#4834d4" stroke-width="3" fill="none"/>
    
    <!-- Stats Cards -->
    <rect x="290" y="350" width="200" height="100" rx="5" fill="#fff"/>
    <rect x="530" y="350" width="200" height="100" rx="5" fill="#fff"/>
    <circle cx="330" cy="400" r="30" fill="#4834d4" opacity="0.2"/>
    <circle cx="570" cy="400" r="30" fill="#4834d4" opacity="0.2"/>
</svg>