<svg xmlns="http://www.w3.org/2000/svg" viewBox="0 0 800 600" width="100%" height="auto">
  <!-- Background -->
  <rect width="800" height="600" fill="#f8f9fa" />
  
  <!-- Coffee Shop Brand Identity Elements -->
  <circle cx="400" cy="200" r="100" fill="#795548" />
  <circle cx="400" cy="200" r="80" fill="#fff" />
  <circle cx="400" cy="200" r="60" fill="#795548" />
  
  <!-- Coffee Cup Icon -->
  <path d="M380,200 Q400,170 420,200" stroke="#fff" stroke-width="6" fill="none" />
  <rect x="370" y="200" width="60" height="40" rx="5" fill="#fff" />
  <rect x="375" y="240" width="50" height="5" rx="2" fill="#fff" />
  
  <!-- Brand Name -->
  <rect x="300" y="320" width="200" height="30" rx="2" fill="#795548" />
  
  <!-- Business Cards Mockup -->
  <rect x="200" y="380" width="150" height="100" rx="5" fill="#fff" stroke="#e0e0e0" stroke-width="2" transform="rotate(-10, 200, 380)" />
  <rect x="220" y="410" width="80" height="10" rx="2" fill="#795548" transform="rotate(-10, 200, 380)" />
  <rect x="220" y="430" width="60" height="5" rx="2" fill="#666" transform="rotate(-10, 200, 380)" />
  <rect x="220" y="440" width="60" height="5" rx="2" fill="#666" transform="rotate(-10, 200, 380)" />
  
  <!-- Menu Mockup -->
  <rect x="450" y="380" width="150" height="100" rx="5" fill="#fff" stroke="#e0e0e0" stroke-width="2" transform="rotate(10, 450, 380)" />
  <rect x="470" y="400" width="80" height="10" rx="2" fill="#795548" transform="rotate(10, 450, 380)" />
  <rect x="470" y="420" width="100" height="5" rx="2" fill="#666" transform="rotate(10, 450, 380)" />
  <rect x="470" y="430" width="100" height="5" rx="2" fill="#666" transform="rotate(10, 450, 380)" />
  <rect x="470" y="440" width="100" height="5" rx="2" fill="#666" transform="rotate(10, 450, 380)" />
  <rect x="470" y="450" width="100" height="5" rx="2" fill="#666" transform="rotate(10, 450, 380)" />
</svg>