<svg xmlns="http://www.w3.org/2000/svg" viewBox="0 0 800 600" width="100%" height="auto">
  <!-- Background -->
  <rect width="800" height="600" fill="#f8f9fa" />
  
  <!-- Website Mockup -->
  <rect x="150" y="100" width="500" height="400" rx="8" fill="#fff" stroke="#e0e0e0" stroke-width="2" />
  
  <!-- Header -->
  <rect x="150" y="100" width="500" height="60" rx="8" fill="#4facfe" />
  <rect x="180" y="125" width="80" height="10" rx="2" fill="#fff" />
  <rect x="500" y="125" width="30" height="10" rx="2" fill="#fff" />
  <rect x="550" y="125" width="30" height="10" rx="2" fill="#fff" />
  <rect x="600" y="125" width="30" height="10" rx="2" fill="#fff" />
  
  <!-- Search Bar -->
  <rect x="200" y="180" width="400" height="40" rx="20" fill="#f0f0f0" />
  <circle cx="220" cy="200" r="10" fill="#666" />
  <rect x="240" y="195" width="100" height="10" rx="2" fill="#666" />
  <rect x="500" y="190" width="80" height="20" rx="10" fill="#ff6b6b" />
  
  <!-- Property Grid -->
  <rect x="170" y="240" width="220" height="150" rx="4" fill="#fff" stroke="#e0e0e0" stroke-width="1" />
  <rect x="170" y="240" width="220" height="100" rx="4" fill="#6c63ff" opacity="0.7" />
  <rect x="180" y="350" width="100" height="10" rx="2" fill="#333" />
  <rect x="180" y="370" width="60" height="10" rx="2" fill="#ff6b6b" />
  
  <rect x="410" y="240" width="220" height="150" rx="4" fill="#fff" stroke="#e0e0e0" stroke-width="1" />
  <rect x="410" y="240" width="220" height="100" rx="4" fill="#4facfe" opacity="0.7" />
  <rect x="420" y="350" width="100" height="10" rx="2" fill="#333" />
  <rect x="420" y="370" width="60" height="10" rx="2" fill="#ff6b6b" />
  
  <!-- Map Element -->
  <rect x="170" y="410" width="460" height="70" rx="4" fill="#e0e0e0" />
  <circle cx="250" cy="440" r="10" fill="#ff6b6b" />
  <circle cx="350" cy="430" r="10" fill="#4facfe" />
  <circle cx="450" cy="450" r="10" fill="#6c63ff" />
  
  <!-- House Icon -->
  <polygon points="400,50 450,100 350,100" fill="#4facfe" />
  <rect x="360" y="100" width="80" height="60" fill="#4facfe" />
  <rect x="385" y="130" width="30" height="30" fill="#fff" />
</svg>