<?xml version="1.0" encoding="UTF-8"?>
<svg width="800" height="600" viewBox="0 0 800 600" xmlns="http://www.w3.org/2000/svg">
    <!-- Main Platform Interface -->
    <rect x="50" y="50" width="700" height="500" rx="10" fill="#f5f6fa"/>
    
    <!-- Course Header -->
    <rect x="70" y="70" width="660" height="100" rx="5" fill="#fff"/>
    <circle cx="120" cy="120" r="30" fill="#00b894"/>
    <rect x="170" y="100" width="200" height="20" rx="3" fill="#2d3436"/>
    <rect x="170" y="130" width="150" height="15" rx="3" fill="#636e72"/>
    
    <!-- Video Player -->
    <rect x="70" y="190" width="440" height="280" rx="5" fill="#2d3436"/>
    <polygon points="270,310 270,350 320,330" fill="#fff"/>
    
    <!-- Course Content -->
    <rect x="530" y="190" width="200" height="280" rx="5" fill="#fff"/>
    <rect x="550" y="210" width="160" height="30" rx="3" fill="#dfe6e9"/>
    <rect x="550" y="260" width="160" height="30" rx="3" fill="#dfe6e9"/>
    <rect x="550" y="310" width="160" height="30" rx="3" fill="#dfe6e9"/>
    <rect x="550" y="360" width="160" height="30" rx="3" fill="#dfe6e9"/>
    
    <!-- Progress Bar -->
    <rect x="70" y="490" width="660" height="40" rx="5" fill="#fff"/>
    <rect x="90" y="505" width="300" height="10" rx="5" fill="#00b894"/>
    <rect x="390" y="505" width="300" height="10" rx="5" fill="#dfe6e9"/>
</svg>